PathFileType	4	(X/Y/Z)	OpenSim_Sub01_CSStiffKnee_Magnet.trc
DataRate	CameraRate	NumFrames	NumMarkers	Units	OrigDataRate	OrigDataStartFrame	OrigNumFrames
100	100	30	8	m	100	1	5381
Frame#	Time	torso_imu_offset_imu	pelvis_imu_offset_imu	tibia_r_imu_offset_imu	femur_r_imu_offset_imu	tibia_l_imu_offset_imu	femur_l_imu_offset_imu	toes_r_imu_offset_imu	toes_l_imu_offset_imu
				X1	Y1	Z1	X2	Y2	Z2	X3	Y3	Z3	X4	Y4	Z4	X5	Y5	Z5	X6	Y6	Z6	X7	Y7	Z7	X8		Y8	Z8	

1	0	-0.93767900	-0.10664361	0.08191203	-0.71516792	0.17703777	-0.60016608	-0.56261519	-0.58061698	-0.17865052	-0.65855994	-0.50979774	-0.07610087	-0.58903626	0.55880409	0.16664539	-0.43157780	0.00789738	0.28248223	-0.70529392	-0.16499709	-0.38783360	-0.71025629	-0.20472038	-0.35075013
2	0.01000000	-0.93784091	-0.10823895	0.08200500	-0.71494950	0.17833500	-0.59974037	-0.56185282	-0.57755337	-0.17645945	-0.66137330	-0.50702946	-0.07753500	-0.58950172	0.55973820	0.16610953	-0.42969010	0.01002966	0.28129636	-0.70385209	-0.16435869	-0.38887253	-0.70971376	-0.20213730	-0.34968592
3	0.02000000	-0.93605569	-0.10987433	0.08179277	-0.71644540	0.17785442	-0.59651960	-0.56388007	-0.57548281	-0.17600426	-0.66297823	-0.50734544	-0.07978732	-0.58779694	0.56026407	0.16271135	-0.42678376	0.00997270	0.28101459	-0.70293556	-0.16319659	-0.38715057	-0.71017334	-0.20021695	-0.34905962
4	0.03000000	-0.93397758	-0.11154354	0.08201036	-0.71863409	0.17645662	-0.59341575	-0.56716947	-0.57555988	-0.17669221	-0.66311153	-0.50905795	-0.08141304	-0.58548470	0.55991596	0.15983695	-0.42412256	0.00826880	0.28266513	-0.70217977	-0.16253129	-0.38504173	-0.71010779	-0.20001243	-0.34812918
5	0.04000000	-0.93336999	-0.11325453	0.08327675	-0.72028661	0.17518831	-0.59347624	-0.56987183	-0.57865049	-0.17774720	-0.66171715	-0.51019470	-0.08105341	-0.58433536	0.55832653	0.16096398	-0.42302559	0.00581855	0.28697879	-0.70112095	-0.16335440	-0.38511463	-0.70796222	-0.20232404	-0.34619047
6	0.05000000	-0.93369403	-0.11440015	0.08462177	-0.72045461	0.17439924	-0.59594963	-0.57089433	-0.58280605	-0.17863315	-0.65971793	-0.51072890	-0.07958936	-0.58447856	0.55624634	0.16464465	-0.42379011	0.00373771	0.29160334	-0.70005784	-0.16519490	-0.38659908	-0.70468606	-0.20562518	-0.34457461
7	0.06000000	-0.93305855	-0.11401448	0.08414398	-0.71836140	0.17402780	-0.59785055	-0.56959527	-0.58442743	-0.17895748	-0.65861070	-0.51177807	-0.07921752	-0.58507783	0.55508226	0.16653550	-0.42610883	0.00326510	0.29238044	-0.69973692	-0.16672138	-0.38676331	-0.70270033	-0.20702439	-0.34580475
8	0.07000000	-0.93082492	-0.11198190	0.08125849	-0.71453173	0.17397185	-0.59769436	-0.56639045	-0.58200029	-0.17873936	-0.65913645	-0.51374483	-0.08097081	-0.58567628	0.55557155	0.16440223	-0.42931130	0.00482613	0.28782380	-0.70047312	-0.16711196	-0.38456295	-0.70321883	-0.20529888	-0.35058438
9	0.08000000	-0.92918816	-0.11009444	0.07834486	-0.71238926	0.17405067	-0.59740932	-0.56404208	-0.57870947	-0.17891260	-0.66033332	-0.51540359	-0.08324761	-0.58669183	0.55693841	0.16080014	-0.43193405	0.00702769	0.28246131	-0.70160555	-0.16670653	-0.38277530	-0.70471930	-0.20298841	-0.35552246
10	0.09000000	-0.93046364	-0.11016140	0.07788461	-0.71521299	0.17408858	-0.59912695	-0.56518817	-0.57800028	-0.18038358	-0.66108670	-0.51547464	-0.08426545	-0.58856148	0.55825679	0.15870212	-0.43256774	0.00833862	0.28113547	-0.70238011	-0.16597987	-0.38427568	-0.70551207	-0.20282297	-0.35706110
11	0.10000000	-0.93425078	-0.11150569	0.07927079	-0.72073910	0.17407127	-0.60230958	-0.56790643	-0.57944273	-0.18249772	-0.66108399	-0.51439376	-0.08405471	-0.59069743	0.55916313	0.15870167	-0.43146929	0.00834301	0.28353572	-0.70244364	-0.16517631	-0.38761279	-0.70600128	-0.20424089	-0.35563917
12	0.11000000	-0.93854820	-0.11198958	0.08008029	-0.72344723	0.17407939	-0.60484782	-0.56759838	-0.58032720	-0.18368328	-0.66048617	-0.51360512	-0.08371283	-0.59190981	0.55962606	0.15998912	-0.42987698	0.00728446	0.28631670	-0.70168145	-0.16440385	-0.38879392	-0.70782020	-0.20474457	-0.35404788
13	0.12000000	-0.94163635	-0.11076742	0.07911579	-0.72062826	0.17413278	-0.60522800	-0.56262567	-0.57931077	-0.18313489	-0.65956187	-0.51378431	-0.08383396	-0.59153858	0.55969598	0.16184285	-0.42869592	0.00576290	0.28720173	-0.70039304	-0.16368952	-0.38612916	-0.71131693	-0.20309252	-0.35392405
14	0.13000000	-0.94247069	-0.10991872	0.07796732	-0.71593961	0.17411282	-0.60331103	-0.55803200	-0.57816566	-0.18178362	-0.65880621	-0.51386299	-0.08385848	-0.59012327	0.55959617	0.16377817	-0.42805943	0.00515421	0.28638611	-0.69979521	-0.16288360	-0.38314007	-0.71393672	-0.20090173	-0.35426102
15	0.14000000	-0.94033608	-0.11160296	0.07842651	-0.71353826	0.17391673	-0.59929517	-0.55910785	-0.57885131	-0.18074058	-0.65871920	-0.51273506	-0.08316336	-0.58838374	0.55955258	0.16535836	-0.42796478	0.00674281	0.28444198	-0.70102899	-0.16185060	-0.38361735	-0.71313155	-0.20003722	-0.35382634
16	0.15000000	-0.93697488	-0.11471891	0.08047253	-0.71384524	0.17379851	-0.59494157	-0.56435796	-0.58090844	-0.18054986	-0.65953480	-0.51134051	-0.08208236	-0.58722621	0.55957739	0.16631120	-0.42808257	0.00978520	0.28237878	-0.70317144	-0.16084898	-0.38685022	-0.71047786	-0.20093164	-0.35274918
17	0.16000000	-0.93557035	-0.11624938	0.08301517	-0.71508034	0.17422071	-0.59292607	-0.56829489	-0.58245529	-0.18141837	-0.66132756	-0.51181925	-0.08151077	-0.58766247	0.55955711	0.16646227	-0.42789300	0.01234471	0.28146033	-0.70408729	-0.16036880	-0.38947961	-0.70997361	-0.20317162	-0.35195981
18	0.17000000	-0.93744092	-0.11477525	0.08492096	-0.71602874	0.17523911	-0.59439308	-0.56772660	-0.58252401	-0.18298195	-0.66365012	-0.51480475	-0.08172410	-0.58978495	0.55947021	0.16580029	-0.42736859	0.01314461	0.28220068	-0.70273027	-0.16073147	-0.38965657	-0.71315468	-0.20612608	-0.35192890
19	0.18000000	-0.93970247	-0.11249825	0.08499071	-0.71680060	0.17599578	-0.59704349	-0.56469781	-0.58222702	-0.18361205	-0.66489529	-0.51753458	-0.08159886	-0.59163165	0.55950406	0.16467520	-0.42758590	0.01241515	0.28343348	-0.70051901	-0.16187542	-0.38897798	-0.71599365	-0.20870247	-0.35207852
20	0.19000000	-0.93927156	-0.11183124	0.08224793	-0.71765258	0.17563440	-0.59834126	-0.56180831	-0.58280803	-0.18175976	-0.66354163	-0.51716614	-0.08001172	-0.59120698	0.55986751	0.16352110	-0.42959510	0.01066929	0.28389785	-0.69910146	-0.16360563	-0.38930994	-0.71427762	-0.20981074	-0.35179248
21	0.20000000	-0.93687694	-0.11230848	0.07810671	-0.71850320	0.17459153	-0.59811441	-0.56007299	-0.58396025	-0.17846477	-0.66057362	-0.51477265	-0.07779549	-0.58903849	0.56069947	0.16313600	-0.43263220	0.00923329	0.28370367	-0.69904999	-0.16488433	-0.39048469	-0.70964986	-0.20903096	-0.35152429
22	0.21000000	-0.93548888	-0.11177161	0.07538514	-0.71907108	0.17406369	-0.59758344	-0.55957073	-0.58446627	-0.17628844	-0.65844804	-0.51372863	-0.07693204	-0.58713839	0.56209551	0.16452780	-0.43486586	0.00990648	0.28376750	-0.70030055	-0.16418359	-0.39113770	-0.70719645	-0.20634138	-0.35235440
23	0.22000000	-0.93652890	-0.10922943	0.07557535	-0.71899377	0.17467376	-0.59751830	-0.56015691	-0.58396882	-0.17665245	-0.65835420	-0.51556548	-0.07836475	-0.58672591	0.56371380	0.16768949	-0.43507358	0.01305592	0.28457423	-0.70238511	-0.16146420	-0.39054516	-0.70949629	-0.20231799	-0.35450752
24	0.23000000	-0.93789807	-0.10634364	0.07717046	-0.71773362	0.17574270	-0.59764359	-0.56121516	-0.58405604	-0.17839161	-0.65861098	-0.51763574	-0.08068682	-0.58720815	0.56423776	0.17034333	-0.43342201	0.01583925	0.28562239	-0.70395249	-0.16002285	-0.38944749	-0.71343474	-0.19885907	-0.35628071
25	0.24000000	-0.93728525	-0.10500927	0.07841153	-0.71489521	0.17646737	-0.59759071	-0.56212186	-0.58630822	-0.18006163	-0.65734128	-0.51708534	-0.08226255	-0.58776838	0.56243446	0.17019929	-0.43035045	0.01533045	0.28630894	-0.70372596	-0.16307997	-0.38872265	-0.71543414	-0.19783503	-0.35596793
26	0.25000000	-0.93510599	-0.10582374	0.07912689	-0.71179610	0.17658236	-0.59748882	-0.56283744	-0.58950689	-0.18094973	-0.65465419	-0.51476460	-0.08237653	-0.58781050	0.55929631	0.16801199	-0.42717205	0.01222311	0.28635982	-0.70243034	-0.16840891	-0.38862321	-0.71508962	-0.19898172	-0.35452346
27	0.26000000	-0.93338102	-0.10861621	0.08007879	-0.71075833	0.17614087	-0.59775974	-0.56366481	-0.59079057	-0.18077670	-0.65182968	-0.51370158	-0.08085954	-0.58686971	0.55712399	0.16632711	-0.42570996	0.00934135	0.28569645	-0.70196599	-0.17058434	-0.38903177	-0.71386611	-0.20077753	-0.35446351
28	0.27000000	-0.93342040	-0.11262134	0.08151086	-0.71282189	0.17549511	-0.59860899	-0.56448060	-0.58898410	-0.17968925	-0.64997598	-0.51533222	-0.07824432	-0.58471331	0.55727054	0.16663475	-0.42661033	0.00851926	0.28453168	-0.70311556	-0.16727633	-0.38959948	-0.71282641	-0.20208126	-0.35674160
29	0.28000000	-0.93490227	-0.11576947	0.08248272	-0.71613725	0.17565539	-0.59975096	-0.56420036	-0.58672233	-0.17877192	-0.64978443	-0.51747717	-0.07661415	-0.58162281	0.55893679	0.16801803	-0.42787847	0.00932034	0.28372296	-0.70413404	-0.16315393	-0.38947186	-0.71208220	-0.20263669	-0.35877941
30	0.29000000	-0.93723646	-0.11605934	0.08204066	-0.71860065	0.17751624	-0.60085622	-0.56183190	-0.58680091	-0.17909318	-0.65173625	-0.51773399	-0.07792164	-0.57806309	0.56106661	0.16931379	-0.42739204	0.01100731	0.28414235	-0.70317986	-0.16325406	-0.38788417	-0.71162714	-0.20233787	-0.35784692
